mtllib bytecorp-asterisk.mtl
o asterisk
usemtl magenta
v 0.000000 0.000000 0.065000
v 0.000000 0.000000 -0.065000
v 1.000000 -0.151000 0.065000
v 1.000000 0.151000 0.065000
v 0.151000 0.062546 0.065000
v 0.813880 0.600334 0.065000
v 0.600334 0.813880 0.065000
v 0.062546 0.151000 0.065000
v 0.151000 1.000000 0.065000
v -0.151000 1.000000 0.065000
v -0.062546 0.151000 0.065000
v -0.600334 0.813880 0.065000
v -0.813880 0.600334 0.065000
v -0.151000 0.062546 0.065000
v -1.000000 0.151000 0.065000
v -1.000000 -0.151000 0.065000
v -0.151000 -0.062546 0.065000
v -0.813880 -0.600334 0.065000
v -0.600334 -0.813880 0.065000
v -0.062546 -0.151000 0.065000
v -0.151000 -1.000000 0.065000
v 0.151000 -1.000000 0.065000
v 0.062546 -0.151000 0.065000
v 0.600334 -0.813880 0.065000
v 0.813880 -0.600334 0.065000
v 0.151000 -0.062546 0.065000
v 1.000000 -0.151000 -0.065000
v 1.000000 0.151000 -0.065000
v 0.151000 0.062546 -0.065000
v 0.813880 0.600334 -0.065000
v 0.600334 0.813880 -0.065000
v 0.062546 0.151000 -0.065000
v 0.151000 1.000000 -0.065000
v -0.151000 1.000000 -0.065000
v -0.062546 0.151000 -0.065000
v -0.600334 0.813880 -0.065000
v -0.813880 0.600334 -0.065000
v -0.151000 0.062546 -0.065000
v -1.000000 0.151000 -0.065000
v -1.000000 -0.151000 -0.065000
v -0.151000 -0.062546 -0.065000
v -0.813880 -0.600334 -0.065000
v -0.600334 -0.813880 -0.065000
v -0.062546 -0.151000 -0.065000
v -0.151000 -1.000000 -0.065000
v 0.151000 -1.000000 -0.065000
v 0.062546 -0.151000 -0.065000
v 0.600334 -0.813880 -0.065000
v 0.813880 -0.600334 -0.065000
v 0.151000 -0.062546 -0.065000
f 1 3 4
f 2 28 27
f 3 27 28
f 3 28 4
f 1 4 5
f 2 29 28
f 4 28 29
f 4 29 5
f 1 5 6
f 2 30 29
f 5 29 30
f 5 30 6
f 1 6 7
f 2 31 30
f 6 30 31
f 6 31 7
f 1 7 8
f 2 32 31
f 7 31 32
f 7 32 8
f 1 8 9
f 2 33 32
f 8 32 33
f 8 33 9
f 1 9 10
f 2 34 33
f 9 33 34
f 9 34 10
f 1 10 11
f 2 35 34
f 10 34 35
f 10 35 11
f 1 11 12
f 2 36 35
f 11 35 36
f 11 36 12
f 1 12 13
f 2 37 36
f 12 36 37
f 12 37 13
f 1 13 14
f 2 38 37
f 13 37 38
f 13 38 14
f 1 14 15
f 2 39 38
f 14 38 39
f 14 39 15
f 1 15 16
f 2 40 39
f 15 39 40
f 15 40 16
f 1 16 17
f 2 41 40
f 16 40 41
f 16 41 17
f 1 17 18
f 2 42 41
f 17 41 42
f 17 42 18
f 1 18 19
f 2 43 42
f 18 42 43
f 18 43 19
f 1 19 20
f 2 44 43
f 19 43 44
f 19 44 20
f 1 20 21
f 2 45 44
f 20 44 45
f 20 45 21
f 1 21 22
f 2 46 45
f 21 45 46
f 21 46 22
f 1 22 23
f 2 47 46
f 22 46 47
f 22 47 23
f 1 23 24
f 2 48 47
f 23 47 48
f 23 48 24
f 1 24 25
f 2 49 48
f 24 48 49
f 24 49 25
f 1 25 26
f 2 50 49
f 25 49 50
f 25 50 26
f 1 26 3
f 2 27 50
f 26 50 27
f 26 27 3
